<?xml version="1.0" standalone="no"?>
<!DOCTYPE svg PUBLIC "-//W3C//DTD SVG 20010904//EN"
 "http://www.w3.org/TR/2001/REC-SVG-20010904/DTD/svg10.dtd">
<svg version="1.0" xmlns="http://www.w3.org/2000/svg"
 width="870.000000pt" height="1280.000000pt" viewBox="0 0 870.000000 1280.000000"
 preserveAspectRatio="xMidYMid meet">
<metadata>
Created by potrace 1.15, written by Peter Selinger 2001-2017
</metadata>
<g transform="translate(0.000000,1280.000000) scale(0.100000,-0.100000)"
fill="#000000" stroke="none">
<path d="M4298 8486 c-26 -8 -69 -26 -95 -41 -157 -91 -233 -211 -233 -371 0
-101 70 -319 131 -410 16 -23 26 -44 23 -47 -3 -3 -19 2 -36 10 -52 26 -148
13 -258 -36 -132 -58 -182 -92 -306 -205 -172 -158 -312 -337 -411 -527 -68
-129 -238 -390 -354 -544 -79 -104 -215 -295 -287 -401 -22 -34 -64 -106 -91
-162 -37 -73 -60 -106 -83 -121 -59 -36 -99 -84 -221 -264 -14 -21 -27 -42
-29 -46 -2 -5 -73 -12 -158 -16 l-155 -7 -17 48 c-9 27 -41 78 -69 114 -52 64
-52 65 -60 155 -31 360 -154 619 -334 705 l-63 30 -275 0 c-258 0 -279 -1
-332 -22 -179 -68 -309 -405 -322 -835 l-6 -173 -31 -5 c-17 -3 -73 -9 -124
-14 -89 -8 -112 -14 -100 -27 3 -3 50 -9 104 -15 127 -12 166 -18 160 -27 -9
-16 36 -265 69 -373 61 -206 140 -354 249 -468 107 -111 169 -130 401 -124 88
2 167 3 175 3 8 -1 46 -1 85 -1 226 2 350 229 368 673 3 75 7 90 30 117 14 17
40 60 58 96 36 74 23 71 212 58 94 -6 97 -7 97 -30 0 -66 81 -140 184 -168
118 -32 171 -1 203 118 l18 69 395 -1 c217 -1 434 -4 481 -7 l87 -7 20 -36
c65 -119 190 -499 176 -536 -3 -7 -18 -18 -34 -26 -41 -20 -179 -157 -186
-185 -20 -80 42 -110 206 -101 60 4 128 11 152 16 24 5 75 15 114 21 125 20
167 63 139 143 -8 23 -15 58 -15 77 0 49 -31 172 -100 403 -33 109 -60 204
-60 212 0 13 85 15 625 15 374 0 625 -4 625 -9 0 -32 -50 -207 -106 -372 -55
-161 -68 -210 -74 -289 -9 -116 0 -141 62 -164 68 -26 213 -49 338 -53 96 -3
121 -1 150 14 40 20 50 56 28 97 -14 26 -121 112 -176 140 -17 9 -32 21 -32
26 0 32 44 223 73 320 34 112 82 239 102 271 9 14 62 17 463 22 l452 6 0 -40
c0 -100 47 -144 155 -144 59 0 81 5 136 32 69 34 88 57 98 120 l6 38 76 3 c73
3 77 2 83 -20 3 -13 27 -54 52 -93 l47 -70 8 -120 c21 -349 97 -538 242 -609
48 -24 110 -32 207 -27 8 1 87 -1 175 -3 238 -5 297 14 411 137 140 150 245
394 289 667 9 58 18 114 20 126 4 19 16 22 127 33 131 13 173 19 166 26 -3 3
-261 35 -282 35 -2 0 -4 65 -4 145 -1 165 -14 277 -47 420 -64 273 -155 427
-279 474 -53 20 -76 21 -332 21 l-276 0 -63 -30 c-74 -35 -156 -119 -203 -208
-63 -119 -118 -327 -129 -490 -6 -92 -6 -92 -58 -161 -46 -61 -61 -88 -79
-143 -5 -15 -18 -18 -88 -18 l-83 0 -55 117 c-58 123 -128 228 -160 238 -10 3
-37 38 -61 78 -60 102 -226 336 -424 597 -87 116 -280 396 -319 465 -16 28
-43 75 -59 105 -40 72 -190 269 -293 384 -188 211 -381 366 -512 410 -43 15
-66 28 -65 37 1 8 18 77 37 154 64 250 51 365 -51 475 -76 82 -177 128 -298
135 -60 3 -106 0 -137 -9z m-629 -1873 c21 -38 51 -79 66 -93 29 -27 90 -138
81 -148 -10 -9 -121 -2 -201 13 -42 8 -101 15 -132 15 l-55 0 22 28 c12 15 55
78 96 140 41 61 77 112 79 112 2 0 22 -30 44 -67z m1588 -155 c87 -86 101
-104 87 -111 -28 -16 -145 -10 -193 9 l-44 17 7 70 c8 88 15 117 29 117 5 0
57 -46 114 -102z m-2167 -443 c-14 -59 -12 -202 4 -265 15 -61 97 -236 162
-346 l42 -72 -46 -6 c-24 -3 -217 -6 -427 -6 l-383 0 10 42 c12 55 89 155 236
306 112 115 404 393 409 389 1 -2 -2 -20 -7 -42z m2735 -144 c58 -55 273 -243
399 -349 l87 -73 -3 -67 -3 -67 -395 3 c-217 2 -399 8 -404 12 -8 8 33 83 106
193 22 32 53 90 70 130 28 65 31 82 31 175 l0 104 31 -6 c18 -4 52 -27 81 -55z
m-1232 -360 c16 -6 32 -23 38 -40 8 -22 18 -30 42 -34 18 -3 55 -11 82 -16 28
-6 69 -15 92 -20 51 -10 132 3 185 30 l37 19 7 -35 c3 -19 3 -46 0 -60 l-6
-25 -660 0 c-619 0 -659 1 -664 18 -2 9 -7 44 -11 76 -6 51 -5 58 9 53 9 -4
53 -14 97 -23 91 -18 251 -16 271 4 7 7 25 12 40 12 22 0 33 8 46 31 l17 31
175 -5 c96 -2 188 -10 203 -16z"/>
</g>
</svg>
